<svg width="64" height="64" viewBox="0 0 64 64" fill="none" xmlns="http://www.w3.org/2000/svg">
  <!-- Gradient Definition -->
  <defs>
    <linearGradient id="iconGradient" x1="0%" y1="0%" x2="100%" y2="100%">
      <stop offset="0%" style="stop-color:#8A2BE2;stop-opacity:1" />
      <stop offset="100%" style="stop-color:#1A73E8;stop-opacity:1" />
    </linearGradient>
  </defs>

  <!-- Background Circle with Gradient -->
  <circle cx="32" cy="32" r="30" fill="url(#iconGradient)"/>

  <!-- D Letter -->
  <path d="M 16 20 L 16 44 L 26 44 C 31 44 34 41 34 36 L 34 28 C 34 23 31 20 26 20 Z M 20 24 L 25 24 C 28 24 30 26 30 28 L 30 36 C 30 38 28 40 25 40 L 20 40 Z" fill="white"/>

  <!-- S Letter -->
  <path d="M 36 20 L 48 20 C 51 20 53 22 53 25 C 53 27 51 28 50 28 C 51 28 53 29 53 32 C 53 35 51 37 48 37 L 36 37 L 36 33 L 47 33 C 48 33 49 32 49 31 C 49 30 48 29 47 29 L 41 29 L 41 27 L 47 27 C 48 27 49 26 49 25 C 49 24 48 23 47 23 L 36 23 Z" fill="white"/>
</svg>
